<mxfile host="app.diagrams.net" modified="2020-11-29T03:36:45.132Z" agent="5.0 (X11; Linux x86_64) AppleWebKit/537.36 (KHTML, like Gecko) Chrome/88.0.4315.5 Safari/537.36" etag="QrQz3R90tTLmQ-it07wv" version="13.9.8" type="github">
  <diagram id="Tv-EcRgtH6PR4At_8SBd" name="Page-1">
    <mxGraphModel dx="1024" dy="699" grid="1" gridSize="10" guides="1" tooltips="1" connect="1" arrows="1" fold="1" page="1" pageScale="1" pageWidth="850" pageHeight="1100" math="0" shadow="0">
      <root>
        <mxCell id="0" />
        <mxCell id="1" parent="0" />
        <mxCell id="4vqMTCH3popFZ2Yx5zjr-1" value="" style="ellipse;html=1;shape=startState;fillColor=#000000;" vertex="1" parent="1">
          <mxGeometry x="630" y="80" width="30" height="30" as="geometry" />
        </mxCell>
        <mxCell id="4vqMTCH3popFZ2Yx5zjr-2" value="" style="edgeStyle=orthogonalEdgeStyle;html=1;verticalAlign=bottom;endArrow=open;endSize=8;" edge="1" source="4vqMTCH3popFZ2Yx5zjr-1" parent="1" target="4vqMTCH3popFZ2Yx5zjr-3">
          <mxGeometry relative="1" as="geometry">
            <mxPoint x="645" y="170" as="targetPoint" />
          </mxGeometry>
        </mxCell>
        <mxCell id="4vqMTCH3popFZ2Yx5zjr-3" value="Mở phần mềm" style="rounded=1;whiteSpace=wrap;html=1;arcSize=40;fontColor=#000000;fillColor=#FFFFFF;" vertex="1" parent="1">
          <mxGeometry x="585" y="160" width="120" height="40" as="geometry" />
        </mxCell>
        <mxCell id="4vqMTCH3popFZ2Yx5zjr-4" value="" style="edgeStyle=orthogonalEdgeStyle;html=1;verticalAlign=bottom;endArrow=open;endSize=8;" edge="1" source="4vqMTCH3popFZ2Yx5zjr-3" parent="1" target="4vqMTCH3popFZ2Yx5zjr-5">
          <mxGeometry relative="1" as="geometry">
            <mxPoint x="645" y="295" as="targetPoint" />
          </mxGeometry>
        </mxCell>
        <mxCell id="4vqMTCH3popFZ2Yx5zjr-5" value="Hiển thị form đăng nhập" style="rounded=1;whiteSpace=wrap;html=1;arcSize=40;fontColor=#000000;fillColor=#FFFFFF;" vertex="1" parent="1">
          <mxGeometry x="585" y="240" width="120" height="40" as="geometry" />
        </mxCell>
        <mxCell id="4vqMTCH3popFZ2Yx5zjr-6" value="" style="edgeStyle=orthogonalEdgeStyle;html=1;verticalAlign=bottom;endArrow=open;endSize=8;" edge="1" source="4vqMTCH3popFZ2Yx5zjr-5" parent="1" target="4vqMTCH3popFZ2Yx5zjr-7">
          <mxGeometry relative="1" as="geometry">
            <mxPoint x="645" y="400" as="targetPoint" />
          </mxGeometry>
        </mxCell>
        <mxCell id="4vqMTCH3popFZ2Yx5zjr-7" value="Người dùng đăng nhập" style="rounded=1;whiteSpace=wrap;html=1;arcSize=40;fontColor=#000000;fillColor=#FFFFFF;" vertex="1" parent="1">
          <mxGeometry x="585" y="320" width="120" height="40" as="geometry" />
        </mxCell>
        <mxCell id="4vqMTCH3popFZ2Yx5zjr-8" value="" style="edgeStyle=orthogonalEdgeStyle;html=1;verticalAlign=bottom;endArrow=open;endSize=8;entryX=0.5;entryY=0;entryDx=0;entryDy=0;" edge="1" source="4vqMTCH3popFZ2Yx5zjr-7" parent="1" target="4vqMTCH3popFZ2Yx5zjr-9">
          <mxGeometry relative="1" as="geometry">
            <mxPoint x="645" y="400" as="targetPoint" />
          </mxGeometry>
        </mxCell>
        <mxCell id="4vqMTCH3popFZ2Yx5zjr-11" style="edgeStyle=orthogonalEdgeStyle;rounded=0;orthogonalLoop=1;jettySize=auto;html=1;entryX=0.5;entryY=1;entryDx=0;entryDy=0;endArrow=open;endFill=0;" edge="1" parent="1" source="4vqMTCH3popFZ2Yx5zjr-9" target="4vqMTCH3popFZ2Yx5zjr-12">
          <mxGeometry relative="1" as="geometry">
            <Array as="points">
              <mxPoint x="820" y="415" />
            </Array>
          </mxGeometry>
        </mxCell>
        <mxCell id="4vqMTCH3popFZ2Yx5zjr-15" style="edgeStyle=orthogonalEdgeStyle;rounded=0;orthogonalLoop=1;jettySize=auto;html=1;endArrow=open;endFill=0;" edge="1" parent="1" source="4vqMTCH3popFZ2Yx5zjr-9" target="4vqMTCH3popFZ2Yx5zjr-14">
          <mxGeometry relative="1" as="geometry" />
        </mxCell>
        <mxCell id="4vqMTCH3popFZ2Yx5zjr-9" value="" style="rhombus;whiteSpace=wrap;html=1;" vertex="1" parent="1">
          <mxGeometry x="610" y="400" width="70" height="30" as="geometry" />
        </mxCell>
        <mxCell id="4vqMTCH3popFZ2Yx5zjr-13" style="edgeStyle=orthogonalEdgeStyle;rounded=0;orthogonalLoop=1;jettySize=auto;html=1;entryX=1;entryY=0.5;entryDx=0;entryDy=0;endArrow=open;endFill=0;" edge="1" parent="1" source="4vqMTCH3popFZ2Yx5zjr-12" target="4vqMTCH3popFZ2Yx5zjr-7">
          <mxGeometry relative="1" as="geometry" />
        </mxCell>
        <mxCell id="4vqMTCH3popFZ2Yx5zjr-12" value="Thông tin đăng nhập không đúng" style="rounded=1;whiteSpace=wrap;html=1;arcSize=40;fontColor=#000000;fillColor=#FFFFFF;" vertex="1" parent="1">
          <mxGeometry x="760" y="320" width="120" height="40" as="geometry" />
        </mxCell>
        <mxCell id="4vqMTCH3popFZ2Yx5zjr-19" style="edgeStyle=orthogonalEdgeStyle;rounded=0;orthogonalLoop=1;jettySize=auto;html=1;endArrow=open;endFill=0;" edge="1" parent="1" source="4vqMTCH3popFZ2Yx5zjr-14" target="4vqMTCH3popFZ2Yx5zjr-17">
          <mxGeometry relative="1" as="geometry" />
        </mxCell>
        <mxCell id="4vqMTCH3popFZ2Yx5zjr-14" value="Kiểm tra quyền tài khoản" style="rounded=1;whiteSpace=wrap;html=1;arcSize=40;fontColor=#000000;fillColor=#FFFFFF;" vertex="1" parent="1">
          <mxGeometry x="585" y="480" width="120" height="40" as="geometry" />
        </mxCell>
        <mxCell id="4vqMTCH3popFZ2Yx5zjr-16" value="" style="ellipse;html=1;shape=endState;fillColor=#000000;" vertex="1" parent="1">
          <mxGeometry x="630" y="640" width="30" height="30" as="geometry" />
        </mxCell>
        <mxCell id="4vqMTCH3popFZ2Yx5zjr-21" style="edgeStyle=orthogonalEdgeStyle;rounded=0;orthogonalLoop=1;jettySize=auto;html=1;endArrow=open;endFill=0;" edge="1" parent="1" source="4vqMTCH3popFZ2Yx5zjr-17" target="4vqMTCH3popFZ2Yx5zjr-16">
          <mxGeometry relative="1" as="geometry" />
        </mxCell>
        <mxCell id="4vqMTCH3popFZ2Yx5zjr-17" value="Hiển thị màn hình chính" style="rounded=1;whiteSpace=wrap;html=1;arcSize=40;fontColor=#000000;fillColor=#FFFFFF;" vertex="1" parent="1">
          <mxGeometry x="585" y="560" width="120" height="40" as="geometry" />
        </mxCell>
        <mxCell id="4vqMTCH3popFZ2Yx5zjr-40" value="&lt;u&gt;:NguoiDung&lt;/u&gt;" style="shape=umlLifeline;participant=umlActor;perimeter=lifelinePerimeter;whiteSpace=wrap;html=1;container=1;collapsible=0;recursiveResize=0;verticalAlign=top;spacingTop=36;outlineConnect=0;strokeColor=#000000;fillColor=#FFFFFF;labelBackgroundColor=#ffffff;" vertex="1" parent="1">
          <mxGeometry x="210" y="720" width="20" height="800" as="geometry" />
        </mxCell>
        <mxCell id="4vqMTCH3popFZ2Yx5zjr-41" value="&lt;u style=&quot;font-size: 14px;&quot;&gt;:DangNhap&lt;/u&gt;" style="shape=umlLifeline;participant=umlBoundary;perimeter=lifelinePerimeter;whiteSpace=wrap;html=1;container=1;collapsible=0;recursiveResize=0;verticalAlign=top;spacingTop=36;outlineConnect=0;strokeColor=#000000;fillColor=#FFFFFF;fontSize=14;" vertex="1" parent="1">
          <mxGeometry x="630" y="720" width="50" height="800" as="geometry" />
        </mxCell>
        <mxCell id="4vqMTCH3popFZ2Yx5zjr-47" value="" style="html=1;points=[];perimeter=orthogonalPerimeter;labelBackgroundColor=#ffffff;strokeColor=#000000;fillColor=#FFFFFF;fontSize=14;" vertex="1" parent="4vqMTCH3popFZ2Yx5zjr-41">
          <mxGeometry x="20" y="120" width="10" height="520" as="geometry" />
        </mxCell>
        <mxCell id="4vqMTCH3popFZ2Yx5zjr-42" value="&lt;u style=&quot;font-size: 14px;&quot;&gt;:TaiKhoan&lt;/u&gt;" style="shape=umlLifeline;participant=umlControl;perimeter=lifelinePerimeter;whiteSpace=wrap;html=1;container=1;collapsible=0;recursiveResize=0;verticalAlign=top;spacingTop=36;outlineConnect=0;strokeColor=#000000;fillColor=#FFFFFF;labelBackgroundColor=#ffffff;fontSize=14;" vertex="1" parent="1">
          <mxGeometry x="900" y="720" width="40" height="800" as="geometry" />
        </mxCell>
        <mxCell id="4vqMTCH3popFZ2Yx5zjr-51" value="" style="html=1;points=[];perimeter=orthogonalPerimeter;labelBackgroundColor=#ffffff;strokeColor=#000000;fillColor=#FFFFFF;fontSize=14;" vertex="1" parent="4vqMTCH3popFZ2Yx5zjr-42">
          <mxGeometry x="15" y="330" width="10" height="110" as="geometry" />
        </mxCell>
        <mxCell id="4vqMTCH3popFZ2Yx5zjr-43" value="&lt;u style=&quot;font-size: 14px;&quot;&gt;:TaiKhoan&lt;/u&gt;" style="shape=umlLifeline;participant=umlEntity;perimeter=lifelinePerimeter;whiteSpace=wrap;html=1;container=1;collapsible=0;recursiveResize=0;verticalAlign=top;spacingTop=36;outlineConnect=0;strokeColor=#000000;fillColor=#FFFFFF;labelBackgroundColor=#ffffff;fontSize=14;" vertex="1" parent="1">
          <mxGeometry x="1210" y="720" width="40" height="800" as="geometry" />
        </mxCell>
        <mxCell id="4vqMTCH3popFZ2Yx5zjr-52" value="" style="html=1;points=[];perimeter=orthogonalPerimeter;labelBackgroundColor=#ffffff;strokeColor=#000000;fillColor=#FFFFFF;fontSize=14;" vertex="1" parent="4vqMTCH3popFZ2Yx5zjr-43">
          <mxGeometry x="15" y="370" width="10" height="270" as="geometry" />
        </mxCell>
        <mxCell id="4vqMTCH3popFZ2Yx5zjr-44" value="&lt;u style=&quot;font-size: 14px;&quot;&gt;:ManHinhChinh&lt;/u&gt;" style="shape=umlLifeline;participant=umlBoundary;perimeter=lifelinePerimeter;whiteSpace=wrap;html=1;container=1;collapsible=0;recursiveResize=0;verticalAlign=top;spacingTop=36;outlineConnect=0;strokeColor=#000000;fillColor=#FFFFFF;labelBackgroundColor=#ffffff;fontSize=14;" vertex="1" parent="1">
          <mxGeometry x="360" y="720" width="50" height="800" as="geometry" />
        </mxCell>
        <mxCell id="4vqMTCH3popFZ2Yx5zjr-46" value="" style="html=1;points=[];perimeter=orthogonalPerimeter;labelBackgroundColor=#ffffff;strokeColor=#000000;fillColor=#FFFFFF;fontSize=14;" vertex="1" parent="4vqMTCH3popFZ2Yx5zjr-44">
          <mxGeometry x="20" y="120" width="10" height="520" as="geometry" />
        </mxCell>
        <mxCell id="4vqMTCH3popFZ2Yx5zjr-48" value="" style="html=1;points=[];perimeter=orthogonalPerimeter;labelBackgroundColor=#ffffff;strokeColor=#000000;fillColor=#FFFFFF;fontSize=14;" vertex="1" parent="4vqMTCH3popFZ2Yx5zjr-44">
          <mxGeometry x="25" y="180.05999999999995" width="10" height="40" as="geometry" />
        </mxCell>
        <mxCell id="4vqMTCH3popFZ2Yx5zjr-49" value="kiemTraDangNhap(taiKhoan)" style="edgeStyle=orthogonalEdgeStyle;html=1;align=left;spacingLeft=2;endArrow=block;rounded=0;entryX=1;entryY=0;strokeColor=#000000;fontSize=14;" edge="1" target="4vqMTCH3popFZ2Yx5zjr-48" parent="4vqMTCH3popFZ2Yx5zjr-44" source="4vqMTCH3popFZ2Yx5zjr-46">
          <mxGeometry relative="1" as="geometry">
            <mxPoint x="30" y="160.05999999999995" as="sourcePoint" />
            <Array as="points">
              <mxPoint x="55" y="160" />
              <mxPoint x="55" y="180" />
            </Array>
          </mxGeometry>
        </mxCell>
        <mxCell id="4vqMTCH3popFZ2Yx5zjr-58" value="" style="html=1;points=[];perimeter=orthogonalPerimeter;labelBackgroundColor=#ffffff;strokeColor=#000000;fillColor=#FFFFFF;fontSize=14;" vertex="1" parent="4vqMTCH3popFZ2Yx5zjr-44">
          <mxGeometry x="25" y="520" width="10" height="40" as="geometry" />
        </mxCell>
        <mxCell id="4vqMTCH3popFZ2Yx5zjr-59" value="kiemTraQuyenTaiKhoan(taiKhoan)" style="edgeStyle=orthogonalEdgeStyle;html=1;align=left;spacingLeft=2;endArrow=block;rounded=0;entryX=1;entryY=0;strokeColor=#000000;fontSize=14;" edge="1" target="4vqMTCH3popFZ2Yx5zjr-58" parent="4vqMTCH3popFZ2Yx5zjr-44">
          <mxGeometry x="0.2946" relative="1" as="geometry">
            <mxPoint x="30" y="520" as="sourcePoint" />
            <Array as="points">
              <mxPoint x="30" y="500" />
              <mxPoint x="55" y="500" />
              <mxPoint x="55" y="520" />
            </Array>
            <mxPoint as="offset" />
          </mxGeometry>
        </mxCell>
        <mxCell id="4vqMTCH3popFZ2Yx5zjr-45" value="Mở phần mềm" style="endArrow=open;endFill=1;endSize=12;html=1;strokeColor=#000000;fontSize=14;" edge="1" parent="1" source="4vqMTCH3popFZ2Yx5zjr-40" target="4vqMTCH3popFZ2Yx5zjr-46">
          <mxGeometry x="-0.1538" y="10" width="160" relative="1" as="geometry">
            <mxPoint x="320" y="1010" as="sourcePoint" />
            <mxPoint x="390" y="840" as="targetPoint" />
            <Array as="points">
              <mxPoint x="350" y="840" />
            </Array>
            <mxPoint as="offset" />
          </mxGeometry>
        </mxCell>
        <mxCell id="4vqMTCH3popFZ2Yx5zjr-50" value="hienThiFormDangNhap" style="endArrow=open;endFill=1;endSize=12;html=1;strokeColor=#000000;fontSize=14;" edge="1" parent="1" source="4vqMTCH3popFZ2Yx5zjr-46">
          <mxGeometry x="-0.0435" y="9" width="160" relative="1" as="geometry">
            <mxPoint x="419.9999999999998" y="1038.9999999999998" as="sourcePoint" />
            <mxPoint x="649.9999999999998" y="1038.9999999999998" as="targetPoint" />
            <Array as="points">
              <mxPoint x="540" y="1039" />
            </Array>
            <mxPoint x="1" as="offset" />
          </mxGeometry>
        </mxCell>
        <mxCell id="4vqMTCH3popFZ2Yx5zjr-53" value="" style="endArrow=open;endFill=1;endSize=12;html=1;strokeColor=#000000;fontSize=14;" edge="1" parent="1" source="4vqMTCH3popFZ2Yx5zjr-47" target="4vqMTCH3popFZ2Yx5zjr-51">
          <mxGeometry width="160" relative="1" as="geometry">
            <mxPoint x="710" y="1080" as="sourcePoint" />
            <mxPoint x="870" y="1080" as="targetPoint" />
            <Array as="points">
              <mxPoint x="800" y="1080" />
            </Array>
          </mxGeometry>
        </mxCell>
        <mxCell id="4vqMTCH3popFZ2Yx5zjr-54" value="dangNhap(thongTinDangNhap)" style="edgeLabel;html=1;align=center;verticalAlign=middle;resizable=0;points=[];fontSize=14;" vertex="1" connectable="0" parent="4vqMTCH3popFZ2Yx5zjr-53">
          <mxGeometry x="-0.2194" y="-3" relative="1" as="geometry">
            <mxPoint x="6" y="-13" as="offset" />
          </mxGeometry>
        </mxCell>
        <mxCell id="4vqMTCH3popFZ2Yx5zjr-55" value="" style="endArrow=open;endFill=1;endSize=12;html=1;strokeColor=#000000;fontSize=14;" edge="1" parent="1" target="4vqMTCH3popFZ2Yx5zjr-52">
          <mxGeometry width="160" relative="1" as="geometry">
            <mxPoint x="925" y="1099.9999999999998" as="sourcePoint" />
            <mxPoint x="1155" y="1099.9999999999998" as="targetPoint" />
          </mxGeometry>
        </mxCell>
        <mxCell id="4vqMTCH3popFZ2Yx5zjr-56" value="kiemTraDangNhap(thongTinDangNhap)" style="edgeLabel;html=1;align=center;verticalAlign=middle;resizable=0;points=[];fontSize=14;" vertex="1" connectable="0" parent="4vqMTCH3popFZ2Yx5zjr-55">
          <mxGeometry x="-0.311" relative="1" as="geometry">
            <mxPoint x="33.18" y="-10" as="offset" />
          </mxGeometry>
        </mxCell>
        <mxCell id="4vqMTCH3popFZ2Yx5zjr-57" value="hienThiManHinhChinh(taiKhoan)" style="html=1;verticalAlign=bottom;endArrow=open;dashed=1;endSize=8;strokeColor=#000000;fontSize=14;" edge="1" parent="1" source="4vqMTCH3popFZ2Yx5zjr-52" target="4vqMTCH3popFZ2Yx5zjr-46">
          <mxGeometry x="0.6647" relative="1" as="geometry">
            <mxPoint x="1190" y="1150" as="sourcePoint" />
            <mxPoint x="780" y="1200" as="targetPoint" />
            <Array as="points">
              <mxPoint x="780" y="1200" />
            </Array>
            <mxPoint as="offset" />
          </mxGeometry>
        </mxCell>
        <mxCell id="4vqMTCH3popFZ2Yx5zjr-60" value="thongTinDangNhapSai" style="html=1;verticalAlign=bottom;endArrow=open;dashed=1;endSize=8;strokeColor=#000000;fontSize=14;" edge="1" parent="1" source="4vqMTCH3popFZ2Yx5zjr-52" target="4vqMTCH3popFZ2Yx5zjr-47">
          <mxGeometry x="0.5752" relative="1" as="geometry">
            <mxPoint x="1120" y="1350" as="sourcePoint" />
            <mxPoint x="1040" y="1350" as="targetPoint" />
            <Array as="points">
              <mxPoint x="870" y="1350" />
            </Array>
            <mxPoint as="offset" />
          </mxGeometry>
        </mxCell>
        <mxCell id="4vqMTCH3popFZ2Yx5zjr-61" value="alt [kiemTraDangNhap==true]" style="shape=umlFrame;whiteSpace=wrap;html=1;labelBackgroundColor=#ffffff;strokeColor=#000000;fillColor=#FFFFFF;fontSize=14;width=220;height=20;" vertex="1" parent="1">
          <mxGeometry x="360" y="1120" width="890" height="250" as="geometry" />
        </mxCell>
        <mxCell id="4vqMTCH3popFZ2Yx5zjr-62" value="" style="endArrow=none;dashed=1;html=1;strokeColor=#000000;fontSize=14;exitX=-0.001;exitY=0.71;exitDx=0;exitDy=0;exitPerimeter=0;" edge="1" parent="1" source="4vqMTCH3popFZ2Yx5zjr-61">
          <mxGeometry width="50" height="50" relative="1" as="geometry">
            <mxPoint x="520" y="1370" as="sourcePoint" />
            <mxPoint x="1251" y="1298" as="targetPoint" />
          </mxGeometry>
        </mxCell>
        <mxCell id="4vqMTCH3popFZ2Yx5zjr-63" value="else" style="edgeLabel;html=1;align=center;verticalAlign=middle;resizable=0;points=[];fontSize=14;" vertex="1" connectable="0" parent="4vqMTCH3popFZ2Yx5zjr-62">
          <mxGeometry x="-0.97" y="1" relative="1" as="geometry">
            <mxPoint x="3" y="11.49" as="offset" />
          </mxGeometry>
        </mxCell>
        <mxCell id="4vqMTCH3popFZ2Yx5zjr-64" value="alt [kiemTraDangNhap==false]" style="shape=umlFrame;whiteSpace=wrap;html=1;labelBackgroundColor=#ffffff;strokeColor=#000000;fillColor=#FFFFFF;fontSize=14;width=280;height=30;" vertex="1" parent="1">
          <mxGeometry x="330" y="960" width="940" height="430" as="geometry" />
        </mxCell>
      </root>
    </mxGraphModel>
  </diagram>
</mxfile>
